G04*
G04 #@! TF.GenerationSoftware,Altium Limited,Altium Designer,25.4.2 (15)*
G04*
G04 Layer_Color=128*
%FSLAX44Y44*%
%MOMM*%
G71*
G04*
G04 #@! TF.SameCoordinates,C413FF29-5236-423E-A092-4D5EA2C1B9D4*
G04*
G04*
G04 #@! TF.FilePolarity,Positive*
G04*
G01*
G75*
%ADD27C,0.1270*%
D27*
X872744Y862330D02*
X882396D01*
X877570Y857504D02*
Y867156D01*
X872744Y938530D02*
X882396D01*
X877570Y933704D02*
Y943356D01*
X1041654Y862330D02*
X1051306D01*
X1046480Y857504D02*
Y867156D01*
X1041654Y938530D02*
X1051306D01*
X1046480Y933704D02*
Y943356D01*
X1209294Y862330D02*
X1218946D01*
X1214120Y857504D02*
Y867156D01*
X1209294Y938530D02*
X1218946D01*
X1214120Y933704D02*
Y943356D01*
X418465Y835660D02*
X426085D01*
X422275Y831850D02*
Y839470D01*
X443865Y835660D02*
X451485D01*
X447675Y831850D02*
Y839470D01*
X469265Y835660D02*
X476885D01*
X473075Y831850D02*
Y839470D01*
X494665Y835660D02*
X502285D01*
X498475Y831850D02*
Y839470D01*
X520065Y835660D02*
X527685D01*
X523875Y831850D02*
Y839470D01*
X545465Y835660D02*
X553085D01*
X549275Y831850D02*
Y839470D01*
X570865Y835660D02*
X578485D01*
X574675Y831850D02*
Y839470D01*
X596265Y835660D02*
X603885D01*
X600075Y831850D02*
Y839470D01*
X621665Y835660D02*
X629285D01*
X625475Y831850D02*
Y839470D01*
X647065Y835660D02*
X654685D01*
X650875Y831850D02*
Y839470D01*
X672465Y835660D02*
X680085D01*
X676275Y831850D02*
Y839470D01*
X697865Y835660D02*
X705485D01*
X701675Y831850D02*
Y839470D01*
X723265Y835660D02*
X730885D01*
X727075Y831850D02*
Y839470D01*
X723265Y683260D02*
X730885D01*
X727075Y679450D02*
Y687070D01*
X393065Y835660D02*
X400685D01*
X396875Y831850D02*
Y839470D01*
X367665Y835660D02*
X375285D01*
X371475Y831850D02*
Y839470D01*
X697865Y683260D02*
X705485D01*
X701675Y679450D02*
Y687070D01*
X672465Y683260D02*
X680085D01*
X676275Y679450D02*
Y687070D01*
X647065Y683260D02*
X654685D01*
X650875Y679450D02*
Y687070D01*
X621665Y683260D02*
X629285D01*
X625475Y679450D02*
Y687070D01*
X596265Y683260D02*
X603885D01*
X600075Y679450D02*
Y687070D01*
X570865Y683260D02*
X578485D01*
X574675Y679450D02*
Y687070D01*
X545465Y683260D02*
X553085D01*
X549275Y679450D02*
Y687070D01*
X520065Y683260D02*
X527685D01*
X523875Y679450D02*
Y687070D01*
X494665Y683260D02*
X502285D01*
X498475Y679450D02*
Y687070D01*
X418465Y683260D02*
X426085D01*
X422275Y679450D02*
Y687070D01*
X469265Y683260D02*
X476885D01*
X473075Y679450D02*
Y687070D01*
X443865Y683260D02*
X451485D01*
X447675Y679450D02*
Y687070D01*
X393065Y683260D02*
X400685D01*
X396875Y679450D02*
Y687070D01*
X367665Y683260D02*
X375285D01*
X371475Y679450D02*
Y687070D01*
X666750Y558800D02*
X681990D01*
X674370Y551180D02*
Y566420D01*
X717550Y558800D02*
X732790D01*
X725170Y551180D02*
Y566420D01*
X1028780Y758190D02*
X1038780D01*
X1033780Y753190D02*
Y763190D01*
X1054180Y758190D02*
X1064180D01*
X1059180Y753190D02*
Y763190D01*
X1196420Y758190D02*
X1206420D01*
X1201420Y753190D02*
Y763190D01*
X1221820Y758190D02*
X1231820D01*
X1226820Y753190D02*
Y763190D01*
X859870Y758190D02*
X869870D01*
X864870Y753190D02*
Y763190D01*
X885270Y758190D02*
X895270D01*
X890270Y753190D02*
Y763190D01*
M02*
