G04*
G04 #@! TF.GenerationSoftware,Altium Limited,Altium Designer,25.4.2 (15)*
G04*
G04 Layer_Physical_Order=2*
G04 Layer_Color=16711680*
%FSLAX44Y44*%
%MOMM*%
G71*
G04*
G04 #@! TF.SameCoordinates,C413FF29-5236-423E-A092-4D5EA2C1B9D4*
G04*
G04*
G04 #@! TF.FilePolarity,Positive*
G04*
G01*
G75*
%ADD11C,0.2540*%
%ADD19C,1.5748*%
%ADD20C,1.5240*%
%ADD21R,1.5240X1.5240*%
%ADD22R,2.7940X3.0480*%
%ADD23O,2.7940X3.0480*%
G04:AMPARAMS|DCode=24|XSize=1.7mm|YSize=1.8mm|CornerRadius=0.2125mm|HoleSize=0mm|Usage=FLASHONLY|Rotation=0.000|XOffset=0mm|YOffset=0mm|HoleType=Round|Shape=RoundedRectangle|*
%AMROUNDEDRECTD24*
21,1,1.7000,1.3750,0,0,0.0*
21,1,1.2750,1.8000,0,0,0.0*
1,1,0.4250,0.6375,-0.6875*
1,1,0.4250,-0.6375,-0.6875*
1,1,0.4250,-0.6375,0.6875*
1,1,0.4250,0.6375,0.6875*
%
%ADD24ROUNDEDRECTD24*%
%ADD25O,1.7000X1.8000*%
%ADD26C,1.0160*%
G36*
X1302896Y478914D02*
X1294430D01*
X1294130Y483870D01*
X1294130Y483994D01*
Y519423D01*
X1022433D01*
Y483994D01*
X1022433Y483870D01*
X1022133Y478914D01*
X344294D01*
Y1009526D01*
X1302896D01*
Y478914D01*
D02*
G37*
%LPC*%
G36*
X1206898Y999578D02*
X1206898Y999578D01*
X652145D01*
X649493Y999229D01*
X647021Y998205D01*
X644899Y996576D01*
X496638Y848316D01*
X493573Y847495D01*
X490677Y845823D01*
X488814Y843959D01*
X485775Y843686D01*
X482736Y843959D01*
X480873Y845823D01*
X477977Y847495D01*
X474747Y848360D01*
X471403D01*
X468173Y847495D01*
X465277Y845823D01*
X463414Y843959D01*
X460375Y843686D01*
X457336Y843959D01*
X455473Y845823D01*
X452577Y847495D01*
X449347Y848360D01*
X446003D01*
X442773Y847495D01*
X439877Y845823D01*
X438014Y843959D01*
X434975Y843686D01*
X431936Y843959D01*
X430073Y845823D01*
X427177Y847495D01*
X423947Y848360D01*
X420603D01*
X417373Y847495D01*
X414477Y845823D01*
X412614Y843959D01*
X409575Y843686D01*
X406536Y843959D01*
X404673Y845823D01*
X401777Y847495D01*
X398547Y848360D01*
X395203D01*
X391973Y847495D01*
X389077Y845823D01*
X387214Y843959D01*
X384175Y843686D01*
X381136Y843959D01*
X379273Y845823D01*
X376377Y847495D01*
X373147Y848360D01*
X369803D01*
X366573Y847495D01*
X363677Y845823D01*
X361312Y843458D01*
X359641Y840562D01*
X358775Y837332D01*
Y833988D01*
X359641Y830758D01*
X361312Y827862D01*
X363677Y825498D01*
X366573Y823826D01*
X369803Y822960D01*
X373147D01*
X376377Y823826D01*
X379273Y825498D01*
X381136Y827361D01*
X384175Y827634D01*
X387214Y827361D01*
X389077Y825498D01*
X391973Y823826D01*
X395203Y822960D01*
X398547D01*
X401777Y823826D01*
X404673Y825498D01*
X406536Y827361D01*
X409575Y827634D01*
X412614Y827361D01*
X414477Y825498D01*
X417373Y823826D01*
X420603Y822960D01*
X423947D01*
X427177Y823826D01*
X430073Y825498D01*
X431936Y827361D01*
X434975Y827634D01*
X438014Y827361D01*
X439877Y825498D01*
X442773Y823826D01*
X446003Y822960D01*
X449347D01*
X452577Y823826D01*
X455473Y825498D01*
X457336Y827361D01*
X460375Y827634D01*
X463414Y827361D01*
X465277Y825498D01*
X468173Y823826D01*
X471403Y822960D01*
X474747D01*
X477977Y823826D01*
X480873Y825498D01*
X482736Y827361D01*
X485775Y827634D01*
X488814Y827361D01*
X490677Y825498D01*
X493573Y823826D01*
X496803Y822960D01*
X500147D01*
X503377Y823826D01*
X506273Y825498D01*
X508136Y827361D01*
X511175Y827634D01*
X514214Y827361D01*
X516077Y825498D01*
X518973Y823826D01*
X522203Y822960D01*
X525547D01*
X528777Y823826D01*
X531673Y825498D01*
X533536Y827361D01*
X536575Y827634D01*
X539614Y827361D01*
X541477Y825498D01*
X544373Y823826D01*
X547603Y822960D01*
X550947D01*
X554177Y823826D01*
X557073Y825498D01*
X558936Y827361D01*
X561975Y827634D01*
X565014Y827361D01*
X566877Y825498D01*
X569773Y823826D01*
X573003Y822960D01*
X576347D01*
X579577Y823826D01*
X582473Y825498D01*
X584336Y827361D01*
X587375Y827634D01*
X590414Y827361D01*
X592277Y825498D01*
X595173Y823826D01*
X598403Y822960D01*
X601747D01*
X604977Y823826D01*
X607873Y825498D01*
X609736Y827361D01*
X612775Y827634D01*
X615814Y827361D01*
X617677Y825498D01*
X620573Y823826D01*
X623803Y822960D01*
X627147D01*
X630377Y823826D01*
X633273Y825498D01*
X635638Y827862D01*
X636852Y829966D01*
X637120Y830070D01*
X639879Y830401D01*
X642380Y830054D01*
X642745Y829422D01*
X644637Y827530D01*
X646953Y826192D01*
X649537Y825500D01*
X649605D01*
Y835660D01*
Y845820D01*
X649537D01*
X646953Y845128D01*
X644637Y843790D01*
X642745Y841898D01*
X642380Y841266D01*
X639879Y840919D01*
X637120Y841250D01*
X636852Y841355D01*
X635638Y843458D01*
X633273Y845823D01*
X630377Y847495D01*
X627147Y848360D01*
X623803D01*
X620573Y847495D01*
X617677Y845823D01*
X615814Y843959D01*
X612775Y843686D01*
X609736Y843959D01*
X607873Y845823D01*
X604977Y847495D01*
X601747Y848360D01*
X598403D01*
X595173Y847495D01*
X592277Y845823D01*
X590414Y843959D01*
X587375Y843686D01*
X584336Y843959D01*
X582473Y845823D01*
X581612Y846320D01*
X580247Y852140D01*
X656390Y928282D01*
X869498D01*
X869616Y928164D01*
X872570Y926459D01*
X875865Y925576D01*
X879275D01*
X882570Y926459D01*
X885524Y928164D01*
X887936Y930576D01*
X889641Y933530D01*
X890524Y936825D01*
Y940235D01*
X889641Y943530D01*
X887936Y946484D01*
X885524Y948896D01*
X882570Y950601D01*
X879275Y951484D01*
X875865D01*
X872570Y950601D01*
X869616Y948896D01*
X869498Y948778D01*
X658669D01*
X656565Y953858D01*
X664010Y961302D01*
X1028265D01*
X1036232Y953335D01*
Y946602D01*
X1036114Y946484D01*
X1034409Y943530D01*
X1033526Y940235D01*
Y936825D01*
X1034409Y933530D01*
X1036114Y930576D01*
X1038526Y928164D01*
X1041480Y926459D01*
X1044775Y925576D01*
X1048185D01*
X1051480Y926459D01*
X1054434Y928164D01*
X1056846Y930576D01*
X1058551Y933530D01*
X1059434Y936825D01*
Y940235D01*
X1058551Y943530D01*
X1056846Y946484D01*
X1056728Y946602D01*
Y957580D01*
X1056378Y960232D01*
X1055355Y962704D01*
X1053726Y964826D01*
X1053726Y964826D01*
X1044550Y974002D01*
X1046654Y979082D01*
X1202654D01*
X1203872Y977864D01*
Y946602D01*
X1203754Y946484D01*
X1202049Y943530D01*
X1201166Y940235D01*
Y936825D01*
X1202049Y933530D01*
X1203754Y930576D01*
X1206166Y928164D01*
X1209120Y926459D01*
X1212415Y925576D01*
X1215825D01*
X1219120Y926459D01*
X1222074Y928164D01*
X1224486Y930576D01*
X1226191Y933530D01*
X1227074Y936825D01*
Y940235D01*
X1226191Y943530D01*
X1224486Y946484D01*
X1224368Y946602D01*
Y982108D01*
X1224018Y984761D01*
X1222995Y987232D01*
X1221366Y989355D01*
X1214145Y996576D01*
X1212022Y998205D01*
X1209551Y999229D01*
X1206898Y999578D01*
D02*
G37*
G36*
X739775Y848360D02*
X714375D01*
Y848105D01*
X710117Y846123D01*
X709295Y845925D01*
X706577Y847495D01*
X703347Y848360D01*
X700003D01*
X696773Y847495D01*
X693877Y845823D01*
X692014Y843959D01*
X688975Y843686D01*
X685936Y843959D01*
X684073Y845823D01*
X681177Y847495D01*
X677947Y848360D01*
X674603D01*
X671373Y847495D01*
X668477Y845823D01*
X666113Y843458D01*
X664898Y841355D01*
X664630Y841250D01*
X661871Y840919D01*
X659370Y841266D01*
X659005Y841898D01*
X657113Y843790D01*
X654797Y845128D01*
X652213Y845820D01*
X652145D01*
Y835660D01*
Y825500D01*
X652213D01*
X654797Y826192D01*
X657113Y827530D01*
X659005Y829422D01*
X659370Y830054D01*
X661871Y830401D01*
X664630Y830070D01*
X664898Y829966D01*
X666113Y827862D01*
X668477Y825498D01*
X671373Y823826D01*
X674603Y822960D01*
X677947D01*
X681177Y823826D01*
X684073Y825498D01*
X685936Y827361D01*
X688975Y827634D01*
X692014Y827361D01*
X693877Y825498D01*
X696773Y823826D01*
X700003Y822960D01*
X703347D01*
X706577Y823826D01*
X709295Y825395D01*
X710117Y825198D01*
X714375Y823215D01*
Y822960D01*
X739775D01*
Y848360D01*
D02*
G37*
G36*
X1228090Y769658D02*
Y759460D01*
X1237854D01*
X1237576Y761572D01*
X1236463Y764258D01*
X1234694Y766564D01*
X1232388Y768333D01*
X1229702Y769446D01*
X1228090Y769658D01*
D02*
G37*
G36*
X1060450D02*
Y759460D01*
X1070214D01*
X1069936Y761572D01*
X1068823Y764258D01*
X1067054Y766564D01*
X1064748Y768333D01*
X1062062Y769446D01*
X1060450Y769658D01*
D02*
G37*
G36*
X891540D02*
Y759460D01*
X901304D01*
X901026Y761572D01*
X899913Y764258D01*
X898144Y766564D01*
X895838Y768333D01*
X893152Y769446D01*
X891540Y769658D01*
D02*
G37*
G36*
X1237854Y756920D02*
X1228090D01*
Y746722D01*
X1229702Y746934D01*
X1232388Y748047D01*
X1234694Y749816D01*
X1236463Y752122D01*
X1237576Y754808D01*
X1237854Y756920D01*
D02*
G37*
G36*
X1215825Y875284D02*
X1212415D01*
X1209120Y874401D01*
X1206166Y872696D01*
X1203754Y870284D01*
X1202049Y867330D01*
X1201166Y864035D01*
Y860625D01*
X1202049Y857330D01*
X1203754Y854376D01*
X1203872Y854258D01*
Y820349D01*
X1194174Y810650D01*
X1192545Y808528D01*
X1191522Y806056D01*
X1191172Y803404D01*
X1191172Y803404D01*
Y771175D01*
X1189906Y770204D01*
X1188751Y768699D01*
X1188026Y766946D01*
X1187778Y765065D01*
Y751315D01*
X1188026Y749434D01*
X1188751Y747681D01*
X1189906Y746176D01*
X1191411Y745021D01*
X1193164Y744296D01*
X1195045Y744048D01*
X1207795D01*
X1209676Y744296D01*
X1211429Y745021D01*
X1212934Y746176D01*
X1214089Y747681D01*
X1214121Y747760D01*
X1216545Y748793D01*
X1218502Y749184D01*
X1219893Y749090D01*
X1221252Y748047D01*
X1223938Y746934D01*
X1225550Y746722D01*
Y758190D01*
Y769658D01*
X1223938Y769446D01*
X1221252Y768333D01*
X1219893Y767290D01*
X1218502Y767196D01*
X1216545Y767587D01*
X1214121Y768620D01*
X1214089Y768699D01*
X1212934Y770204D01*
X1211668Y771175D01*
Y799159D01*
X1221366Y808858D01*
X1221366Y808858D01*
X1222995Y810980D01*
X1224018Y813452D01*
X1224368Y816104D01*
X1224368Y816104D01*
Y854258D01*
X1224486Y854376D01*
X1226191Y857330D01*
X1227074Y860625D01*
Y864035D01*
X1226191Y867330D01*
X1224486Y870284D01*
X1222074Y872696D01*
X1219120Y874401D01*
X1215825Y875284D01*
D02*
G37*
G36*
X1070214Y756920D02*
X1060450D01*
Y746722D01*
X1062062Y746934D01*
X1064748Y748047D01*
X1067054Y749816D01*
X1068823Y752122D01*
X1069936Y754808D01*
X1070214Y756920D01*
D02*
G37*
G36*
X1048185Y875284D02*
X1044775D01*
X1041480Y874401D01*
X1038526Y872696D01*
X1036114Y870284D01*
X1034409Y867330D01*
X1033526Y864035D01*
Y860625D01*
X1034409Y857330D01*
X1036114Y854376D01*
X1036232Y854258D01*
Y820349D01*
X1026534Y810650D01*
X1024905Y808528D01*
X1023882Y806056D01*
X1023532Y803404D01*
X1023532Y803404D01*
Y771175D01*
X1022266Y770204D01*
X1021111Y768699D01*
X1020386Y766946D01*
X1020138Y765065D01*
Y751315D01*
X1020386Y749434D01*
X1021111Y747681D01*
X1022266Y746176D01*
X1023771Y745021D01*
X1025524Y744296D01*
X1027405Y744048D01*
X1040155D01*
X1042036Y744296D01*
X1043789Y745021D01*
X1045294Y746176D01*
X1046449Y747681D01*
X1046481Y747760D01*
X1048905Y748793D01*
X1050862Y749184D01*
X1052253Y749090D01*
X1053612Y748047D01*
X1056298Y746934D01*
X1057910Y746722D01*
Y758190D01*
Y769658D01*
X1056298Y769446D01*
X1053612Y768333D01*
X1052253Y767290D01*
X1050862Y767196D01*
X1048905Y767587D01*
X1046481Y768620D01*
X1046449Y768699D01*
X1045294Y770204D01*
X1044028Y771175D01*
Y799159D01*
X1053726Y808858D01*
X1053726Y808858D01*
X1055355Y810980D01*
X1056378Y813452D01*
X1056728Y816104D01*
X1056728Y816104D01*
Y854258D01*
X1056846Y854376D01*
X1058551Y857330D01*
X1059434Y860625D01*
Y864035D01*
X1058551Y867330D01*
X1056846Y870284D01*
X1054434Y872696D01*
X1051480Y874401D01*
X1048185Y875284D01*
D02*
G37*
G36*
X901304Y756920D02*
X891540D01*
Y746722D01*
X893152Y746934D01*
X895838Y748047D01*
X898144Y749816D01*
X899913Y752122D01*
X901026Y754808D01*
X901304Y756920D01*
D02*
G37*
G36*
X879275Y875284D02*
X875865D01*
X872570Y874401D01*
X869616Y872696D01*
X867204Y870284D01*
X865499Y867330D01*
X864616Y864035D01*
Y860625D01*
X865499Y857330D01*
X867204Y854376D01*
X867322Y854258D01*
Y822059D01*
X857624Y812360D01*
X855995Y810238D01*
X854971Y807766D01*
X854622Y805114D01*
X854622Y805114D01*
Y771175D01*
X853356Y770204D01*
X852201Y768699D01*
X851476Y766946D01*
X851228Y765065D01*
Y751315D01*
X851476Y749434D01*
X852201Y747681D01*
X853356Y746176D01*
X854861Y745021D01*
X856614Y744296D01*
X858495Y744048D01*
X871245D01*
X873126Y744296D01*
X874879Y745021D01*
X876384Y746176D01*
X877539Y747681D01*
X877571Y747760D01*
X879995Y748793D01*
X881952Y749184D01*
X883343Y749090D01*
X884702Y748047D01*
X887388Y746934D01*
X889000Y746722D01*
Y758190D01*
Y769658D01*
X887388Y769446D01*
X884702Y768333D01*
X883343Y767290D01*
X881952Y767196D01*
X879995Y767587D01*
X877571Y768620D01*
X877539Y768699D01*
X876384Y770204D01*
X875118Y771175D01*
Y800869D01*
X884816Y810568D01*
X884816Y810568D01*
X886445Y812690D01*
X887468Y815162D01*
X887818Y817814D01*
X887818Y817814D01*
Y854258D01*
X887936Y854376D01*
X889641Y857330D01*
X890524Y860625D01*
Y864035D01*
X889641Y867330D01*
X887936Y870284D01*
X885524Y872696D01*
X882570Y874401D01*
X879275Y875284D01*
D02*
G37*
G36*
X677947Y695960D02*
X674603D01*
X671373Y695095D01*
X668477Y693422D01*
X666614Y691559D01*
X663575Y691286D01*
X660536Y691559D01*
X658673Y693422D01*
X655777Y695095D01*
X652547Y695960D01*
X649203D01*
X645973Y695095D01*
X643077Y693422D01*
X641214Y691559D01*
X638175Y691286D01*
X635136Y691559D01*
X633273Y693422D01*
X630377Y695095D01*
X627147Y695960D01*
X623803D01*
X620573Y695095D01*
X617677Y693422D01*
X615814Y691559D01*
X612775Y691286D01*
X609736Y691559D01*
X607873Y693422D01*
X604977Y695095D01*
X601747Y695960D01*
X598403D01*
X595173Y695095D01*
X592277Y693422D01*
X590414Y691559D01*
X587375Y691286D01*
X584336Y691559D01*
X582473Y693422D01*
X579577Y695095D01*
X576347Y695960D01*
X573003D01*
X569773Y695095D01*
X566877Y693422D01*
X565014Y691559D01*
X561975Y691286D01*
X558936Y691559D01*
X557073Y693422D01*
X554177Y695095D01*
X550947Y695960D01*
X547603D01*
X544373Y695095D01*
X541477Y693422D01*
X539614Y691559D01*
X536575Y691286D01*
X533536Y691559D01*
X531673Y693422D01*
X528777Y695095D01*
X525547Y695960D01*
X522203D01*
X518973Y695095D01*
X516077Y693422D01*
X514214Y691559D01*
X511175Y691286D01*
X508136Y691559D01*
X506273Y693422D01*
X503377Y695095D01*
X500147Y695960D01*
X496803D01*
X493573Y695095D01*
X490677Y693422D01*
X488814Y691559D01*
X485775Y691286D01*
X482736Y691559D01*
X480873Y693422D01*
X477977Y695095D01*
X474747Y695960D01*
X471403D01*
X468173Y695095D01*
X465277Y693422D01*
X463414Y691559D01*
X460375Y691286D01*
X457336Y691559D01*
X455473Y693422D01*
X452577Y695095D01*
X449347Y695960D01*
X446003D01*
X442773Y695095D01*
X439877Y693422D01*
X438014Y691559D01*
X434975Y691286D01*
X431936Y691559D01*
X430073Y693422D01*
X427177Y695095D01*
X423947Y695960D01*
X420603D01*
X417373Y695095D01*
X414477Y693422D01*
X412614Y691559D01*
X409575Y691286D01*
X406536Y691559D01*
X404673Y693422D01*
X401777Y695095D01*
X398547Y695960D01*
X395203D01*
X391973Y695095D01*
X389077Y693422D01*
X387214Y691559D01*
X384175Y691286D01*
X381136Y691559D01*
X379273Y693422D01*
X376377Y695095D01*
X373147Y695960D01*
X369803D01*
X366573Y695095D01*
X363677Y693422D01*
X361312Y691058D01*
X359641Y688162D01*
X358775Y684932D01*
Y681588D01*
X359641Y678358D01*
X361312Y675462D01*
X363677Y673098D01*
X366573Y671425D01*
X369803Y670560D01*
X373147D01*
X376377Y671425D01*
X379273Y673098D01*
X381136Y674961D01*
X384175Y675234D01*
X387214Y674961D01*
X389077Y673098D01*
X391973Y671425D01*
X395203Y670560D01*
X398547D01*
X401777Y671425D01*
X404673Y673098D01*
X406536Y674961D01*
X409575Y675234D01*
X412614Y674961D01*
X414477Y673098D01*
X417373Y671425D01*
X420603Y670560D01*
X423947D01*
X427177Y671425D01*
X430073Y673098D01*
X431936Y674961D01*
X434975Y675234D01*
X438014Y674961D01*
X439877Y673098D01*
X442773Y671425D01*
X446003Y670560D01*
X449347D01*
X452577Y671425D01*
X455473Y673098D01*
X457336Y674961D01*
X460375Y675234D01*
X463414Y674961D01*
X465277Y673098D01*
X468173Y671425D01*
X471403Y670560D01*
X474747D01*
X477977Y671425D01*
X480873Y673098D01*
X482736Y674961D01*
X485775Y675234D01*
X488814Y674961D01*
X490677Y673098D01*
X493573Y671425D01*
X496803Y670560D01*
X500147D01*
X503377Y671425D01*
X506273Y673098D01*
X508136Y674961D01*
X511175Y675234D01*
X514214Y674961D01*
X516077Y673098D01*
X518973Y671425D01*
X522203Y670560D01*
X525547D01*
X528777Y671425D01*
X531673Y673098D01*
X533536Y674961D01*
X536575Y675234D01*
X539614Y674961D01*
X541477Y673098D01*
X544373Y671425D01*
X547603Y670560D01*
X550947D01*
X554177Y671425D01*
X557073Y673098D01*
X558936Y674961D01*
X561975Y675234D01*
X565014Y674961D01*
X566877Y673098D01*
X569773Y671425D01*
X573003Y670560D01*
X576347D01*
X579577Y671425D01*
X582473Y673098D01*
X584336Y674961D01*
X587375Y675234D01*
X590414Y674961D01*
X592277Y673098D01*
X595173Y671425D01*
X598403Y670560D01*
X601747D01*
X604977Y671425D01*
X607873Y673098D01*
X609736Y674961D01*
X612775Y675234D01*
X615814Y674961D01*
X617677Y673098D01*
X620573Y671425D01*
X623803Y670560D01*
X627147D01*
X630377Y671425D01*
X633273Y673098D01*
X635136Y674961D01*
X638175Y675234D01*
X641214Y674961D01*
X643077Y673098D01*
X645973Y671425D01*
X649203Y670560D01*
X652547D01*
X655777Y671425D01*
X658673Y673098D01*
X660536Y674961D01*
X663575Y675234D01*
X666614Y674961D01*
X668477Y673098D01*
X671373Y671425D01*
X674603Y670560D01*
X677947D01*
X681177Y671425D01*
X684073Y673098D01*
X686438Y675462D01*
X687652Y677566D01*
X687920Y677670D01*
X690679Y678001D01*
X693180Y677654D01*
X693545Y677022D01*
X695437Y675130D01*
X697753Y673792D01*
X700337Y673100D01*
X700405D01*
Y683260D01*
Y693420D01*
X700337D01*
X697753Y692728D01*
X695437Y691390D01*
X693545Y689498D01*
X693180Y688866D01*
X690679Y688519D01*
X687920Y688850D01*
X687652Y688954D01*
X686438Y691058D01*
X684073Y693422D01*
X681177Y695095D01*
X677947Y695960D01*
D02*
G37*
G36*
X728747D02*
X725403D01*
X722173Y695095D01*
X719277Y693422D01*
X716913Y691058D01*
X715698Y688954D01*
X715430Y688850D01*
X712671Y688519D01*
X710170Y688866D01*
X709805Y689498D01*
X707913Y691390D01*
X705597Y692728D01*
X703013Y693420D01*
X702945D01*
Y683260D01*
Y673100D01*
X703013D01*
X705597Y673792D01*
X707913Y675130D01*
X709805Y677022D01*
X714596Y675314D01*
X715875Y674439D01*
Y576702D01*
X714535Y575986D01*
X711634Y573606D01*
X709254Y570705D01*
X707485Y567395D01*
X706396Y563805D01*
X706028Y560070D01*
Y557530D01*
X706396Y553796D01*
X707485Y550205D01*
X709254Y546895D01*
X711634Y543994D01*
X714535Y541614D01*
X717845Y539845D01*
X721435Y538756D01*
X725170Y538388D01*
X728904Y538756D01*
X732495Y539845D01*
X735805Y541614D01*
X738706Y543994D01*
X741086Y546895D01*
X742855Y550205D01*
X743944Y553796D01*
X744312Y557530D01*
Y560070D01*
X743944Y563805D01*
X742855Y567395D01*
X741086Y570705D01*
X738706Y573606D01*
X736370Y575522D01*
Y674595D01*
X737237Y675462D01*
X738910Y678358D01*
X739775Y681588D01*
Y684932D01*
X738910Y688162D01*
X737237Y691058D01*
X734873Y693422D01*
X731977Y695095D01*
X728747Y695960D01*
D02*
G37*
G36*
X690880Y576580D02*
X675640D01*
Y560070D01*
X690880D01*
Y576580D01*
D02*
G37*
G36*
X673100D02*
X657860D01*
Y560070D01*
X673100D01*
Y576580D01*
D02*
G37*
G36*
X690880Y557530D02*
X675640D01*
Y541020D01*
X690880D01*
Y557530D01*
D02*
G37*
G36*
X673100D02*
X657860D01*
Y541020D01*
X673100D01*
Y557530D01*
D02*
G37*
%LPD*%
D11*
X1286510Y511803D02*
X1276353D01*
X1281432D01*
Y496568D01*
X1271275Y506725D02*
Y496568D01*
Y501647D01*
X1268736Y504186D01*
X1266197Y506725D01*
X1263657D01*
X1253501D02*
X1248422D01*
X1245883Y504186D01*
Y496568D01*
X1253501D01*
X1256040Y499108D01*
X1253501Y501647D01*
X1245883D01*
X1238266Y496568D02*
Y509264D01*
Y504186D01*
X1240805D01*
X1235726D01*
X1238266D01*
Y509264D01*
X1235726Y511803D01*
X1225570Y496568D02*
Y509264D01*
Y504186D01*
X1228109D01*
X1223030D01*
X1225570D01*
Y509264D01*
X1223030Y511803D01*
X1215413Y496568D02*
X1210335D01*
X1212874D01*
Y506725D01*
X1215413D01*
X1192560D02*
X1200178D01*
X1202717Y504186D01*
Y499108D01*
X1200178Y496568D01*
X1192560D01*
X1172247Y511803D02*
Y496568D01*
X1162090D01*
X1157012D02*
X1151934D01*
X1154473D01*
Y506725D01*
X1157012D01*
X1139238Y491490D02*
X1136699D01*
X1134159Y494029D01*
Y506725D01*
X1141777D01*
X1144316Y504186D01*
Y499108D01*
X1141777Y496568D01*
X1134159D01*
X1129081Y511803D02*
Y496568D01*
Y504186D01*
X1126542Y506725D01*
X1121463D01*
X1118924Y504186D01*
Y496568D01*
X1111307Y509264D02*
Y506725D01*
X1113846D01*
X1108767D01*
X1111307D01*
Y499108D01*
X1108767Y496568D01*
X1101150D02*
X1093532D01*
X1090993Y499108D01*
X1093532Y501647D01*
X1098611D01*
X1101150Y504186D01*
X1098611Y506725D01*
X1090993D01*
X1070680Y496568D02*
Y511803D01*
X1063062D01*
X1060523Y509264D01*
Y504186D01*
X1063062Y501647D01*
X1070680D01*
X1045288Y509264D02*
X1047827Y511803D01*
X1052906D01*
X1055445Y509264D01*
Y499108D01*
X1052906Y496568D01*
X1047827D01*
X1045288Y499108D01*
X1040210Y511803D02*
Y496568D01*
X1032592D01*
X1030053Y499108D01*
Y501647D01*
X1032592Y504186D01*
X1040210D01*
X1032592D01*
X1030053Y506725D01*
Y509264D01*
X1032592Y511803D01*
X1040210D01*
D19*
X877570Y862330D02*
D03*
Y938530D02*
D03*
X1046480Y862330D02*
D03*
Y938530D02*
D03*
X1214120Y862330D02*
D03*
Y938530D02*
D03*
D20*
X422275Y835660D02*
D03*
X447675D02*
D03*
X473075D02*
D03*
X498475D02*
D03*
X523875D02*
D03*
X549275D02*
D03*
X574675D02*
D03*
X600075D02*
D03*
X625475D02*
D03*
X650875D02*
D03*
X676275D02*
D03*
X701675D02*
D03*
X727075Y683260D02*
D03*
X396875Y835660D02*
D03*
X371475D02*
D03*
X701675Y683260D02*
D03*
X676275D02*
D03*
X650875D02*
D03*
X625475D02*
D03*
X600075D02*
D03*
X574675D02*
D03*
X549275D02*
D03*
X523875D02*
D03*
X498475D02*
D03*
X422275D02*
D03*
X473075D02*
D03*
X447675D02*
D03*
X396875D02*
D03*
X371475D02*
D03*
D21*
X727075Y835660D02*
D03*
D22*
X674370Y558800D02*
D03*
D23*
X725170D02*
D03*
D24*
X1033780Y758190D02*
D03*
X1201420D02*
D03*
X864870D02*
D03*
D25*
X1059180D02*
D03*
X1226820D02*
D03*
X890270D02*
D03*
D26*
X674370Y558800D02*
Y560070D01*
X701675Y587375D01*
Y683260D01*
X725170Y558800D02*
X726123Y559753D01*
Y682308D01*
X727075Y683260D01*
X1201420Y758190D02*
Y803404D01*
X1214120Y816104D01*
Y862330D01*
X1033780Y758190D02*
Y803404D01*
X1046480Y816104D01*
Y862330D01*
X864870Y758190D02*
Y805114D01*
X877570Y817814D01*
Y862330D01*
X1225511Y756881D02*
X1226820Y758190D01*
X1225511Y743673D02*
Y756881D01*
X1220868Y739030D02*
X1225511Y743673D01*
X1052720Y739030D02*
X1220868D01*
X1057871Y756881D02*
X1059180Y758190D01*
X1057871Y744181D02*
Y756881D01*
X1052720Y739030D02*
X1057871Y744181D01*
X876334Y739030D02*
X1052720D01*
X888961Y756881D02*
X890270Y758190D01*
X888961Y751658D02*
Y756881D01*
X876334Y739030D02*
X888961Y751658D01*
X747505Y739030D02*
X876334D01*
X650875Y835660D02*
X747505Y739030D01*
X1214120Y938530D02*
Y982108D01*
X1206898Y989330D02*
X1214120Y982108D01*
X652145Y989330D02*
X1206898D01*
X498475Y835660D02*
X652145Y989330D01*
X523875Y835660D02*
X659765Y971550D01*
X1032510D02*
X1046480Y957580D01*
X659765Y971550D02*
X1032510D01*
X1046480Y938530D02*
Y957580D01*
X549275Y835660D02*
X652145Y938530D01*
X877570D01*
X700703Y682288D02*
X701675Y683260D01*
X674370Y558800D02*
X681653Y566083D01*
X725170Y558800D02*
Y564881D01*
M02*
