G04*
G04 #@! TF.GenerationSoftware,Altium Limited,Altium Designer,25.4.2 (15)*
G04*
G04 Layer_Color=12632256*
%FSLAX44Y44*%
%MOMM*%
G71*
G04*
G04 #@! TF.SameCoordinates,C413FF29-5236-423E-A092-4D5EA2C1B9D4*
G04*
G04*
G04 #@! TF.FilePolarity,Positive*
G04*
G01*
G75*
%ADD19C,1.5748*%
%ADD20C,1.5240*%
%ADD21R,1.5240X1.5240*%
%ADD22R,2.7940X3.0480*%
%ADD23O,2.7940X3.0480*%
G04:AMPARAMS|DCode=24|XSize=1.7mm|YSize=1.8mm|CornerRadius=0.2125mm|HoleSize=0mm|Usage=FLASHONLY|Rotation=0.000|XOffset=0mm|YOffset=0mm|HoleType=Round|Shape=RoundedRectangle|*
%AMROUNDEDRECTD24*
21,1,1.7000,1.3750,0,0,0.0*
21,1,1.2750,1.8000,0,0,0.0*
1,1,0.4250,0.6375,-0.6875*
1,1,0.4250,-0.6375,-0.6875*
1,1,0.4250,-0.6375,0.6875*
1,1,0.4250,0.6375,0.6875*
%
%ADD24ROUNDEDRECTD24*%
%ADD25O,1.7000X1.8000*%
D19*
X877570Y862330D02*
D03*
Y938530D02*
D03*
X1046480Y862330D02*
D03*
Y938530D02*
D03*
X1214120Y862330D02*
D03*
Y938530D02*
D03*
D20*
X422275Y835660D02*
D03*
X447675D02*
D03*
X473075D02*
D03*
X498475D02*
D03*
X523875D02*
D03*
X549275D02*
D03*
X574675D02*
D03*
X600075D02*
D03*
X625475D02*
D03*
X650875D02*
D03*
X676275D02*
D03*
X701675D02*
D03*
X727075Y683260D02*
D03*
X396875Y835660D02*
D03*
X371475D02*
D03*
X701675Y683260D02*
D03*
X676275D02*
D03*
X650875D02*
D03*
X625475D02*
D03*
X600075D02*
D03*
X574675D02*
D03*
X549275D02*
D03*
X523875D02*
D03*
X498475D02*
D03*
X422275D02*
D03*
X473075D02*
D03*
X447675D02*
D03*
X396875D02*
D03*
X371475D02*
D03*
D21*
X727075Y835660D02*
D03*
D22*
X674370Y558800D02*
D03*
D23*
X725170D02*
D03*
D24*
X1033780Y758190D02*
D03*
X1201420D02*
D03*
X864870D02*
D03*
D25*
X1059180D02*
D03*
X1226820D02*
D03*
X890270D02*
D03*
M02*
